Coordinates
version=1
nRows=24
nColumns=24
inDegrees=yes

Units are S.I. units (second, meters, Newtons, ...)
Angles are in degrees.

endheader
time	pelvis_tilt	pelvis_list	pelvis_rotation	pelvis_tx	pelvis_ty	pelvis_tz	hip_flexion_r	hip_adduction_r	hip_rotation_r	knee_angle_r	ankle_angle_r	subtalar_angle_r	mtp_angle_r	hip_flexion_l	hip_adduction_l	hip_rotation_l	knee_angle_l	ankle_angle_l	subtalar_angle_l	mtp_angle_l	lumbar_extension	lumbar_bending	lumbar_rotation
      5.47000000	    -10.90743092	     -0.04102687	     -5.84722191	     -1.06909762	     -0.02389472	     -0.26217686	     -3.98017228	      4.14849844	      9.97669536	    -14.68217644	     26.59046910	     16.62946857	    -38.41852099	     33.17056123	     -2.15174125	     -1.25447048	     -6.00894465	     -0.36501154	      1.32787119	      8.16762244	      8.04022807	      0.77746574	     13.92917440
      5.47500000	    -10.93489824	      0.10371455	     -5.91679112	     -1.06267474	     -0.02469083	     -0.26267188	     -4.01893230	      3.90132336	      9.72433307	    -15.32427470	     26.57102668	     17.15298279	    -38.15264097	     33.19576740	     -2.01721648	     -1.49729159	     -6.68080310	     -0.50710745	      1.21431470	      8.17702033	      8.21850384	      0.62230058	     14.03104252
      5.48000000	    -10.98566144	      0.25023421	     -5.94519222	     -1.05619703	     -0.02550748	     -0.26329846	     -4.02399884	      3.64016044	      9.41232248	    -15.98189579	     26.51614419	     17.75546824	    -37.79599945	     33.24932044	     -1.85075606	     -1.64434989	     -7.36418956	     -0.75609510	      0.96478462	      8.22458857	      8.43036369	      0.47528921	     14.09887461
      5.48500000	    -11.04995093	      0.36369532	     -5.79761994	     -1.04973063	     -0.02634428	     -0.26414191	     -4.02486237	      3.42107530	      8.92317316	    -16.60502672	     26.05341795	     18.33873062	    -36.14513957	     33.32692628	     -1.60935712	     -1.48119082	     -8.00601897	     -1.31194521	      0.44113624	      8.57426857	      8.64516265	      0.32411944	     13.91294501
      5.49000000	    -11.09816844	      0.59489511	     -5.92900100	     -1.04328185	     -0.02699988	     -0.26460924	     -3.96712100	      3.07053849	      8.76985067	    -17.34702234	     25.91770906	     18.89430886	    -35.79250759	     33.35726398	     -1.42581974	     -1.82261464	     -8.65267931	     -1.64310969	      0.23497014	      8.57358579	      8.85947395	      0.10005648	     14.14152913
      5.49500000	    -11.17638855	      0.79087226	     -5.86087078	     -1.03688310	     -0.02764879	     -0.26537555	     -3.89790988	      2.76219716	      8.43135126	    -17.98640510	     24.79512421	     19.45186719	    -32.10496935	     33.41724382	     -1.14316587	     -1.71757806	     -9.19144589	     -2.48844255	     -0.50615206	      9.21535070	      9.08819814	     -0.12075341	     14.07818019
      5.50000000	    -11.23307133	      1.09286931	     -5.80112268	     -1.03043157	     -0.02820429	     -0.26606839	     -3.77350080	      2.31829073	      7.89265359	    -18.80837301	     24.62490390	     20.18141281	    -31.75187262	     33.50240890	     -0.78375622	     -1.96634751	     -9.85378571	     -2.81555693	     -0.49671523	      9.19736573	      9.31485435	     -0.46838373	     14.06801203
      5.50500000	    -11.29625017	      1.38592399	     -5.66276917	     -1.02404476	     -0.02862740	     -0.26688134	     -3.67517556	      1.89333579	      7.45388799	    -19.47307009	     23.28954537	     20.80678470	    -27.66077292	     33.57845932	     -0.36480943	     -1.92080769	    -10.43781615	     -3.46565226	     -0.89795600	      9.44540581	      9.53334263	     -0.81892878	     13.97051784
      5.51000000	    -11.39651700	      1.77653228	     -5.56478268	     -1.01768324	     -0.02901769	     -0.26763821	     -3.42442890	      1.34125525	      6.84674980	    -20.40000601	     23.04446704	     21.62686433	    -27.33770854	     33.70538190	      0.12077346	     -1.95877141	    -11.06250322	     -3.90914856	     -1.05764313	      9.40628792	      9.80323177	     -1.26492980	     13.94390407
      5.51500000	    -11.46294899	      2.15041777	     -5.34842484	     -1.01133957	     -0.02923225	     -0.26852459	     -3.25957405	      0.81176865	      6.25574972	    -21.12881421	     21.54448593	     22.33619097	    -23.06575203	     33.79165743	      0.68395257	     -1.70219098	    -11.66636619	     -4.49972818	     -1.42642499	      9.38973621	     10.02256819	     -1.72580635	     13.78757426
      5.52000000	    -11.59826376	      2.56834645	     -5.11809123	     -1.00501387	     -0.02946737	     -0.26943234	     -2.92396890	      0.21116752	      5.45436908	    -22.11259644	     21.01217527	     23.22579112	    -22.29538426	     33.95536591	      1.29970384	     -1.37897759	    -12.29206292	     -5.00252105	     -1.70873146	      9.28483670	     10.32092123	     -2.23089014	     13.61794809
      5.52500000	    -11.63941442	      3.03863866	     -4.95782590	     -0.99868175	     -0.02945894	     -0.27018919	     -2.70039808	     -0.44971274	      4.86487618	    -22.93941899	     19.37398073	     24.04449962	    -17.92495052	     34.01865506	      1.93549984	     -1.16466025	    -12.96519030	     -5.31492250	     -1.79597325	      8.84614841	     10.52060005	     -2.79298716	     13.58460434
      5.53000000	    -11.77676024	      3.45567651	     -4.62150873	     -0.99236433	     -0.02957539	     -0.27116452	     -2.32777542	     -1.07515146	      3.94204273	    -23.97495562	     18.56507781	     25.00705346	    -16.72504501	     34.19917446	      2.62921634	     -0.62592365	    -13.64564349	     -5.76616142	     -2.01093256	      8.72085887	     10.80968445	     -3.33427961	     13.32547460
      5.53500000	    -11.75692003	      3.88697401	     -4.40783162	     -0.98598704	     -0.02936475	     -0.27189484	     -2.13072283	     -1.72771084	      3.18128471	    -24.82957980	     16.56342706	     25.85246156	    -11.96879022	     34.19139895	      3.26707753	     -0.35047385	    -14.36251317	     -5.78948949	     -1.76531732	      8.04462793	     10.93350363	     -3.88775124	     13.21007694
      5.54000000	    -11.88558708	      4.28947030	     -4.08740226	     -0.97961088	     -0.02933600	     -0.27284028	     -1.70694977	     -2.38430618	      2.21354289	    -25.95625978	     15.53446658	     26.91397799	    -10.83817624	     34.31221101	      3.95831875	      0.29065697	    -14.99341565	     -6.20056123	     -1.98648106	      7.89677735	     11.21736701	     -4.40572106	     13.01526258
      5.54500000	    -11.83617528	      4.68255895	     -3.84131754	     -0.97318187	     -0.02903539	     -0.27354686	     -1.50470348	     -3.02381563	      1.40160580	    -26.83856240	     13.16583811	     27.72125931	     -5.64276238	     34.24140316	      4.59122350	      0.65769377	    -15.69458533	     -6.08364325	     -1.68222428	      7.07081925	     11.30285041	     -4.94040553	     12.84263426
      5.55000000	    -11.85646995	      5.04637118	     -3.54406085	     -0.96669988	     -0.02880258	     -0.27435938	     -1.19000370	     -3.66056107	      0.48848301	    -27.86732338	     11.22546310	     28.60253051	     -2.42777522	     34.19660583	      5.23534824	      1.18760012	    -16.28692018	     -6.26444442	     -1.70106419	      6.77734326	     11.46790728	     -5.44073453	     12.63883508
      5.55500000	    -11.87583212	      5.34768235	     -3.25662549	     -0.96025898	     -0.02857082	     -0.27522456	     -0.83770537	     -4.25677465	     -0.42832097	    -28.94869709	      9.15344435	     29.48981415	      0.70762841	     34.13069157	      5.82319004	      1.74196624	    -16.86797983	     -6.30245598	     -1.69160929	      6.30241523	     11.61609364	     -5.85239564	     12.46006603
      5.56000000	    -11.88404295	      5.62817330	     -2.98084003	     -0.95376059	     -0.02830752	     -0.27603621	     -0.48724830	     -4.83664876	     -1.29575525	    -30.03335546	      6.95183571	     30.26089884	      3.67304775	     34.01032188	      6.38384168	      2.28577310	    -17.38326519	     -6.36973598	     -1.77176232	      5.97606733	     11.75858186	     -6.25658795	     12.27528997
      5.56500000	    -11.97974298	      5.82905268	     -2.61788230	     -0.94738432	     -0.02819294	     -0.27705251	      0.00993423	     -5.35388237	     -2.24329505	    -31.30512905	      5.13706102	     30.97948219	      4.83990562	     33.95406899	      6.93234151	      3.04247373	    -17.83488229	     -6.57619338	     -2.12612826	      5.82078982	     11.96078551	     -6.57353714	     11.98857702
      5.57000000	    -11.92240828	      6.03985926	     -2.40643921	     -0.94085569	     -0.02781265	     -0.27778938	      0.32312095	     -5.87328420	     -2.99251549	    -32.32446429	      2.27087885	     31.43491362	      8.73086313	     33.68675521	      7.37489277	      3.33210252	    -18.22310083	     -6.48895164	     -2.14200787	      5.59821814	     12.03151012	     -6.88621706	     11.84237306
      5.57500000	    -12.00304650	      6.16091151	     -2.08495038	     -0.93454638	     -0.02769565	     -0.27882850	      0.86549463	     -6.32521888	     -3.81204028	    -33.65979002	      0.29706520	     31.91575318	      9.36851748	     33.54161468	      7.81841350	      4.00068406	    -18.55410187	     -6.58066661	     -2.52423160	      5.62012589	     12.19982440	     -7.09452001	     11.61760975
      5.58000000	    -11.99605997	      6.31199796	     -1.87017533	     -0.92814363	     -0.02739099	     -0.27965325	      1.31034795	     -6.78515899	     -4.46934513	    -34.80072862	     -2.48779366	     31.99657777	     11.96143015	     33.25038064	      8.20481393	      4.30199748	    -18.77686366	     -6.62399186	     -2.83644951	      5.79108019	     12.30495800	     -7.32854920	     11.44183634
      5.58500000	    -12.07456610	      6.41732700	     -1.57513567	     -0.92183578	     -0.02726376	     -0.28064917	      1.90214420	     -7.21471770	     -5.15976395	    -36.17727967	     -4.50503836	     32.04847475	     11.86007393	     33.02661191	      8.59340882	      4.77859348	    -18.97356058	     -6.55644996	     -3.12869852	      5.90370159	     12.48069392	     -7.51939063	     11.20664294
